<!--?xml version="1.0" encoding="utf-8"?-->
<!-- Generator: Adobe Illustrator 15.1.0, SVG Export Plug-In . SVG Version: 6.00 Build 0)  -->

<svg version="1.1" id="_x32_" xmlns="http://www.w3.org/2000/svg" xmlns:xlink="http://www.w3.org/1999/xlink" x="0px" y="0px" width="512px" height="512px" viewBox="0 0 512 512" style="width: 256px; height: 256px; opacity: 1;" xml:space="preserve">
<style type="text/css">

	.st0{fill:#4B4B4B;}

</style>
<g>
	<path class="st0" d="M407.788,111.767c6.047-9.313,8.641-16.297,6.219-18.656c-2.406-2.328-9.328,0.422-18.469,6.734l-45.14-99.844
		l-71.563,75.406c0,0,15.484,44.438,19.375,55.563c3.859,11.109,0.078,7.422-10.094,12.234
		c-10.172,4.781-117.484,50.875-141.484,66.078c-23.969,15.219-89.109,85.875-116.625,114.172
		c-26.266,26.969-45.109,99.64,2.422,154.078l-0.344,0.328c1.266,1.234,2.594,2.406,3.875,3.578c1.203,1.25,2.406,2.516,3.672,3.766
		l0.328-0.344c55.703,46.031,127.828,25.25,154.094-1.75c27.531-28.266,96.438-95.265,110.984-119.64
		c14.563-24.391,57.766-132.891,62.297-143.203c4.5-10.281,0.719-13.953,11.938-10.391c11.234,3.578,56.093,17.875,56.093,17.875
		l73.422-73.563L407.788,111.767z" style="fill: rgb(75, 75, 75);"></path>
</g>
</svg>
